<?xml version="1.0" standalone="no"?>
<!DOCTYPE svg PUBLIC "-//W3C//DTD SVG 20010904//EN"
 "http://www.w3.org/TR/2001/REC-SVG-20010904/DTD/svg10.dtd">
<svg version="1.0" xmlns="http://www.w3.org/2000/svg"
 width="200.000000pt" height="200.000000pt" viewBox="0 0 200.000000 200.000000"
 preserveAspectRatio="xMidYMid meet">

<g transform="translate(0.000000,200.000000) scale(0.100000,-0.100000)"
fill="#000000" stroke="none">
<path d="M187 1945 c-50 -17 -85 -50 -108 -100 -18 -38 -19 -84 -19 -838 0
-777 1 -799 20 -837 11 -21 36 -51 57 -67 l36 -28 796 -6 c455 -4 811 -3 832
2 54 13 100 49 126 98 l23 44 0 794 c0 694 -2 798 -15 831 -21 49 -52 81 -100
103 -38 18 -83 19 -825 18 -639 0 -792 -2 -823 -14z m1338 -346 c5 -5 -1 -9
-15 -9 -33 0 -13 -18 25 -22 20 -2 31 -9 34 -23 2 -11 7 -23 12 -26 10 -6 -11
-59 -23 -59 -5 0 -8 -9 -8 -21 0 -35 -20 -60 -66 -79 -24 -11 -44 -24 -44 -30
0 -6 -60 -71 -133 -144 -87 -87 -141 -149 -155 -179 -14 -29 -71 -97 -152
-180 -71 -74 -130 -136 -130 -139 0 -2 74 -2 165 0 106 3 186 0 223 -7 73 -15
111 -15 254 -1 94 10 121 10 133 0 9 -7 12 -17 7 -24 -12 -15 -14 -67 -4 -80
32 -42 6 -86 -50 -86 -30 -1 -31 -2 -13 -12 29 -16 29 -16 15 -33 -8 -10 -9
-15 -1 -15 6 0 11 -5 11 -11 0 -6 -8 -8 -18 -5 -30 10 -700 11 -922 2 l-205
-8 -24 26 c-24 26 -24 26 -3 26 12 0 22 4 22 9 0 5 10 12 23 16 17 5 7 10 -43
18 -72 13 -84 29 -55 74 13 19 14 27 5 33 -7 4 9 26 47 60 32 29 66 64 75 78
31 48 282 312 295 312 8 0 18 11 23 25 5 14 40 58 78 97 38 40 86 92 107 116
l37 42 -78 2 c-154 3 -420 -4 -498 -13 -84 -9 -95 -7 -78 14 7 8 7 18 2 27
-15 24 -12 36 13 48 21 10 20 11 -10 11 -22 1 -33 6 -33 16 0 8 -7 15 -15 15
-20 0 -19 19 2 42 9 10 31 18 52 19 l36 1 -31 9 c-33 9 -51 36 -35 52 5 5 94
10 197 11 104 2 197 6 208 11 10 4 95 4 190 0 191 -9 269 -8 312 4 37 10 226
2 239 -10z"/>
</g>
</svg>
